<svg xmlns="http://www.w3.org/2000/svg" viewBox="0 0 600 400">
  <path d="M1.93 103.76v-4.87c3.77-.05 6.12-.2 7.05-.46.93-.26 1.79-.76 2.58-1.5s1.92-2.66 3.4-5.76c.86-1.76 3.96-8.47 9.3-20.11L42.15 30.7c1.96-4.44 6.13-14.31 12.52-29.62h4.65l30.55 71.77c4.96 11.64 8.25 18.94 9.87 21.9.91 1.67 1.9 2.77 2.97 3.29 1.07.53 3.49.81 7.26.86v4.87c-7.44-.48-12.64-.72-15.6-.72l-23.04.72V98.9c5.34-.1 8.59-.26 9.73-.5 1.15-.24 1.92-.58 2.33-1.04.41-.45.61-1.01.61-1.68 0-1.05-.33-2.41-1-4.08l-8.8-21.9H32.77l-7.8 18.39c-1.38 3.29-2.07 5.7-2.07 7.23 0 .67.19 1.22.57 1.65.52.62 1.33 1.05 2.43 1.29 1.76.38 4.87.6 9.3.64v4.87c-8.06-.43-14.1-.64-18.1-.64-4.63-.02-9.68.2-15.17.63zM35.2 63.61h36.14L53.45 20.47 35.2 63.61z"/>
  <path d="M121.29 103.76v-3.36c2.96-1.48 4.6-2.4 4.94-2.75.33-.36.6-.99.79-1.9.29-1.43.54-4.47.75-9.12.21-4.65.32-8.19.32-10.63V32.84c0-4.67-.14-10.16-.43-16.46-.19-3.96-.53-6.42-1-7.37-.33-.62-.84-1.07-1.5-1.36-1.57-.67-4.84-1.03-9.8-1.07v-4.5c1.57.1 3.55.14 5.94.14l14.88.36 26.33-.64c6.96 0 12.33.72 16.1 2.14 3.77 1.43 6.71 3.75 8.84 6.97 2.12 3.22 3.18 6.8 3.18 10.76 0 3.14-.63 6.1-1.9 8.86-1.26 2.76-2.96 5.16-5.08 7.18-2.12 2.03-4.48 3.67-7.08 4.93-2.6 1.26-6 2.42-10.2 3.47 5.58.53 10.09 1.3 13.52 2.33 3.43 1.03 6.31 2.55 8.62 4.58 2.31 2.03 4.07 4.5 5.26 7.41 1.19 2.91 1.79 6.16 1.79 9.74 0 7.07-2.14 13.28-6.4 18.66-4.27 5.37-9.77 9.35-16.49 11.92-5.01 1.91-10.95 2.86-17.82 2.86l-20.75-.57c-2.25 0-6.52.19-12.81.58zm20.46-59.54c2.71.14 5.09.21 7.14.21 5.9 0 10.46-.45 13.67-1.36 3.21-.9 5.7-2.09 7.46-3.57 1.76-1.48 3.23-3.48 4.39-6 1.17-2.52 1.75-5.47 1.75-8.85 0-5.95-1.89-10.25-5.68-12.89-3.78-2.64-9.32-3.96-16.6-3.96-4.05 0-7.88.36-11.5 1.07-.43 3.95-.64 10.07-.64 18.35v17zm.22 52.16c3.57.86 7.33 1.29 11.28 1.29 6.29 0 11.36-.97 15.21-2.9 3.86-1.93 6.82-4.85 8.89-8.77 2.07-3.91 3.11-8.4 3.11-13.45 0-5.01-.98-9.22-2.93-12.63-1.95-3.41-4.87-5.94-8.75-7.59-3.88-1.65-10.27-2.47-19.18-2.47-2.05 0-4.67.1-7.86.29v27.12c.01 2.63.08 9 .23 19.11z"/>
  <path d="M302.75 91.09l-2.79 6.65c-5.58 2.81-11.04 4.85-16.39 6.12-5.34 1.26-11.16 1.9-17.46 1.9-7.39 0-14.26-.93-20.61-2.79-6.34-1.86-11.89-4.52-16.64-7.98-4.75-3.46-8.62-7.33-11.63-11.63-3.01-4.29-5.29-8.96-6.87-13.99-1.57-5.03-2.36-10.55-2.36-16.56 0-15.22 5.31-27.82 15.92-37.82C234.54 5 249.03 0 267.4 0c4.34 0 8.36.25 12.06.75 3.7.5 8.2 1.46 13.52 2.86 5.32 1.41 8.57 2.23 9.77 2.47-1.05 2.62-1.84 5.2-2.36 7.73-.76 4.06-1.29 8.75-1.58 14.1h-4.51l-.07-8.44c-.48-4.67-3.07-8.16-7.76-10.45-4.7-2.29-11.58-3.43-20.64-3.43-6.77.1-12.52.97-17.25 2.61-4.72 1.65-8.89 4.25-12.49 7.8-3.6 3.55-6.55 8.06-8.84 13.52-2.29 5.46-3.46 12.32-3.51 20.57 0 14.45 4.41 26.08 13.24 34.88 8.82 8.8 20.49 13.2 34.99 13.2 6.54 0 12.59-.91 18.17-2.72 3.82-1.24 7.61-3.2 11.38-5.87l1.23 1.51z"/>
  <path d="M313.27 103.76v-3.43c2.77-1.57 5.08-3.01 6.94-4.29.29-3.24.52-7.75.71-13.52.33-9.83.5-16.65.5-20.47V32.84c0-4.67-.14-10.16-.43-16.46-.19-3.96-.52-6.42-1-7.37-.34-.62-.84-1.07-1.5-1.36-1.57-.67-4.84-1.03-9.8-1.07v-4.5c6.96.29 13.12.43 18.46.43 4.1 0 9.7-.09 16.78-.29 7.08-.19 12.58-.29 16.49-.29 11.69 0 21.08 1.49 28.19 4.47 7.11 2.98 13.14 7.98 18.1 14.99 4.96 7.01 7.44 15.58 7.44 25.69 0 7.25-1.17 14.05-3.51 20.39s-5.51 11.89-9.52 16.64-8.3 8.5-12.88 11.27c-4.58 2.77-9.39 4.86-14.42 6.26-5.03 1.41-11.94 2.11-20.72 2.11-2.91 0-6.85-.1-11.81-.29-6.49-.19-10.73-.29-12.74-.29-2.88.01-7.98.2-15.28.59zm22.18-7.8c5.25.91 10.78 1.36 16.6 1.36 6.01 0 11.32-.52 15.92-1.57s8.54-2.53 11.81-4.44c3.27-1.91 6.43-4.72 9.48-8.44 3.05-3.72 5.4-8.48 7.05-14.28 1.65-5.8 2.47-11.79 2.47-18 0-8.87-1.59-16.49-4.76-22.86-3.17-6.37-7.95-11.25-14.35-14.63-6.39-3.39-15.17-5.08-26.33-5.08-5.87 0-11.83.45-17.89 1.36-.14 2.34-.26 6.49-.36 12.45l-.29 10.38v28.55l.21 22.18c.06 3.38.2 7.72.44 13.02z"/>
  <path d="M425.32 103.76v-4.51c5.01-.05 8.3-.43 9.87-1.15.67-.29 1.14-.74 1.43-1.36.48-.95.81-3.46 1-7.51.29-6.3.43-11.73.43-16.31V36.35c0-6.49-.07-12.83-.21-19.03-.14-4.53-.49-7.21-1.04-8.05-.55-.83-1.43-1.45-2.65-1.86-1.22-.4-4.66-.66-10.34-.75V2.08l20.39.43 21.61-.36c10.35-.14 17.87-.21 22.54-.21 4.72 0 9.18.26 13.38.79-.76 2.72-1.29 5.08-1.57 7.08-.1.43-.52 5.39-1.29 14.88h-4.51c.05-4.87-.26-9.3-.93-13.31-2.62-1.1-5.51-1.84-8.66-2.22-5.34-.67-10.68-1-16.03-1-1.14 0-3.7.1-7.66.29-3.96.19-6.8.36-8.52.5-.19 5.3-.33 10.26-.43 14.88l-.29 24.19c5.58.29 10.71.43 15.38.43 5.68 0 10.52-.26 14.52-.79 1.53-.19 2.51-.57 2.93-1.15.43-.57.81-2.53 1.14-5.87l.43-5.01h4.29v1.36l-.36 14.88.36 16.67h-5.01l-.21-4.87c-.1-3.53-.42-5.72-.97-6.58-.55-.86-1.59-1.45-3.11-1.79-2.72-.57-7.99-.86-15.81-.86-3.2 0-7.73.12-13.59.36-.24 4.77-.36 11.85-.36 21.25 0 8.83.12 15.53.36 20.11 6.87.53 14.57.79 23.11.79 6.06 0 10.37-.19 12.95-.57 2.58-.38 4.96-1.02 7.15-1.93.57-1.48 1.15-3.48 1.72-6.01 1.05-4.25 1.74-7.44 2.08-9.59h4.72c-1.24 9.64-1.86 17.63-1.86 23.97-4.1.62-9.09.93-14.95.93l-42.72-.57c-.58 0-6.83.19-18.71.58z"/>
  <path d="M512.91 6.65V2.08c7.25.29 13.4.43 18.46.43 3.58 0 9.99-.09 19.25-.29 9.25-.19 15.5-.29 18.75-.29 3.48 0 6.67.04 9.55.11 2.89.07 5.5.2 7.84.39-1.19 4.06-1.96 11.28-2.29 21.68h-4.51c-.43-5.77-1.03-10.21-1.79-13.31-2.48-.86-5.54-1.49-9.19-1.9-3.65-.4-7.88-.61-12.7-.61-4.82 0-9.8.29-14.95.86-.29 2.58-.48 4.99-.57 7.23-.05 1.29-.17 6.75-.36 16.39v15.89c5.34.14 10.07.21 14.17.21 6.06 0 10.9-.31 14.53-.93 1.38-.24 2.28-.63 2.68-1.18.4-.55.85-2.56 1.32-6.05l.57-4.44h4.51l-.5 16.31.5 17.53h-4.51l-.5-4.58c-.53-5.2-.91-7.99-1.15-8.37-.38-.67-1.29-1.17-2.72-1.5-2.72-.62-8.87-.93-18.46-.93-3.39 0-6.87.1-10.45.29v14.45c0 6.49.1 12.81.29 18.96.09 4.53.42 7.23.97 8.09.55.86 1.44 1.49 2.68 1.9 1.24.41 4.67.66 10.3.75v4.58c-6.06-.38-12.09-.57-18.1-.57-5.39 0-13.26.19-23.61.57v-4.58c5.63-.1 9.06-.35 10.3-.75 1.24-.41 2.1-.97 2.58-1.68.57-.95.93-3.27 1.07-6.94.05-1 .14-7.77.29-20.32V36.35c0-6.49-.07-12.83-.21-19.03-.14-4.53-.49-7.21-1.04-8.05-.55-.83-1.43-1.45-2.65-1.86-1.23-.41-4.68-.66-10.35-.76z"/>
  <path d="M135.99 233.77c-7.25 2.62-13.19 4.39-17.82 5.3-8.16 1.57-15.89 2.36-23.18 2.36-11.02 0-20.82-2.16-29.41-6.48s-15.22-10.36-19.89-18.14c-4.68-7.77-7.01-16.96-7.01-27.55 0-9.3 1.67-17.21 5.02-23.72 3.35-6.51 7.53-11.87 12.56-16.06 5.02-4.2 10.04-7.3 15.05-9.3 7.68-3.05 17.17-4.58 28.48-4.58 5.29.05 10.86.66 16.71 1.82 5.84 1.17 12.44 2.78 19.78 4.83-.72 2.43-1.26 4.82-1.65 7.16-.38 2.34-.88 7.13-1.5 14.38h-4.36l-.36-8.16c-.05-1.24-.1-2.24-.14-3.01-.05-.76-.36-1.74-.93-2.93-1.29-1.72-3.34-3.27-6.15-4.65-4.87-1.86-8.89-3.1-12.06-3.72-3.17-.62-6.95-.93-11.34-.93-9.06 0-16.91 1.93-23.54 5.8-6.63 3.86-11.65 9.4-15.06 16.6-3.41 7.2-5.12 15.07-5.12 23.61 0 9.4 1.99 17.85 5.98 25.37 3.99 7.51 9.34 13.26 16.04 17.24 6.71 3.98 14.53 5.98 23.46 5.98 4.2 0 8.27-.41 12.21-1.22 3.94-.81 7.27-1.93 9.99-3.36.43-1.91.64-4.96.64-9.16v-7.94c0-4.2-.21-6.65-.64-7.37-.43-.72-1.59-1.25-3.47-1.61-1.89-.36-6.21-.63-12.99-.82v-4.36l22.33.5c4.34 0 8.78-.17 13.31-.5l.43 3.43-5.37 3.15c-.57 5.11-.86 9.8-.86 14.1 0 4.28.29 8.93.86 13.94z"/>
  <path d="M149.44 142.25v-4.58l21.9.43 20.18-.43v4.58c-5.68.1-9.12.35-10.34.75-1.22.41-2.06.97-2.54 1.68-.57.95-.93 3.27-1.07 6.94-.05.95-.14 7.73-.29 20.32v9.95c9.4.33 20.85.5 34.35.5 10.35 0 18.63-.17 24.83-.5v-9.95c0-6.49-.1-12.83-.29-19.03-.14-4.53-.49-7.21-1.04-8.05-.55-.83-1.43-1.45-2.65-1.86-1.22-.4-4.66-.66-10.34-.75v-4.58c10.26.29 17.29.43 21.11.43 1.43 0 8.4-.14 20.89-.43v4.58c-5.63.1-9.06.35-10.3.75-1.24.41-2.07.97-2.5 1.68-.62.95-1 3.27-1.14 6.94-.05.95-.14 7.72-.29 20.3v33.11c0 6.48.1 12.8.29 18.95.1 4.53.42 7.22.97 8.08.55.86 1.44 1.49 2.68 1.89 1.24.41 4.67.66 10.3.75v4.65c-9.21-.38-16.74-.57-22.61-.57-6.25 0-12.71.19-19.39.57v-4.65c5.68-.1 9.12-.35 10.34-.75 1.22-.4 2.06-.96 2.54-1.68.62-.95.98-3.26 1.07-6.93.05-1 .17-7.76.36-20.29v-16.29c-13.36-.29-23.49-.43-30.41-.43-7.54 0-17.13.14-28.77.43v16.29c0 6.48.07 12.79.21 18.93.14 4.53.49 7.22 1.04 8.07.55.86 1.43 1.49 2.65 1.89 1.22.41 4.66.66 10.34.75v4.65c-6.44-.43-13.07-.64-19.89-.64-7.44 0-14.84.21-22.18.64v-4.65c5.63-.1 9.06-.35 10.3-.75 1.24-.4 2.1-.96 2.58-1.68.57-.95.93-3.26 1.07-6.94.05-1 .14-7.77.29-20.3v-33.11c0-6.48-.07-12.82-.21-19.02-.14-4.53-.49-7.21-1.04-8.04-.55-.83-1.43-1.45-2.65-1.86-1.22-.39-4.67-.64-10.35-.74z"/>
  <path d="M313.37 234.77v4.58c-10.16-.38-16.84-.57-20.03-.57l-22.11.57v-4.58c5.63-.1 9.06-.35 10.3-.75 1.24-.4 2.1-.97 2.58-1.68.57-.95.93-3.27 1.07-6.94.05-1 .14-7.77.29-20.32v-33.13c0-6.49-.07-12.83-.21-19.03-.14-4.53-.49-7.21-1.04-8.05-.55-.83-1.43-1.45-2.65-1.86-1.22-.4-4.66-.66-10.34-.75v-4.58c9.11.33 16.15.5 21.11.5 4.77 0 11.78-.17 21.04-.5v4.58c-5.68.1-9.12.35-10.34.75-1.22.41-2.06.97-2.54 1.68-.57.95-.93 3.27-1.07 6.94-.05.95-.14 7.73-.29 20.32v33.13c0 6.49.07 12.81.21 18.96.14 4.53.49 7.23 1.04 8.09.55.86 1.43 1.49 2.65 1.9 1.21.4 4.66.65 10.33.74z"/>
  <path d="M315.52 266.83l.21-4.94v-1c0-1.1-.07-2.79-.21-5.08l1.36-.93c1.38 1 2.66 1.71 3.83 2.11 1.17.41 2.47.61 3.9.61 2.58 0 4.55-.51 5.94-1.54 1.38-1.03 2.39-2.62 3.01-4.79.62-2.17.93-7.88.93-17.14v-62.18c0-6.49-.1-12.83-.29-19.03-.1-4.53-.42-7.21-.97-8.05-.55-.83-1.44-1.45-2.68-1.86-1.24-.4-4.68-.66-10.3-.75v-4.58c7.54.29 14.6.43 21.18.43 6.96 0 14.05-.14 21.25-.43v4.58c-5.63.1-9.06.35-10.3.75-1.24.41-2.07.97-2.5 1.68-.62.95-1 3.27-1.14 6.94 0 .95-.1 7.73-.29 20.32v51.38c0 7.82-.67 14-2 18.53-1.34 4.53-3.59 8.84-6.76 12.92s-6.62 7.17-10.34 9.27c-3.72 2.1-7.32 3.15-10.8 3.15-.98-.01-1.98-.13-3.03-.37z"/>
  <path d="M411.55 234.77v4.58l-21.61-.57c-1.48 0-8.23.19-20.25.57v-4.58c5.63-.1 9.06-.35 10.3-.75 1.24-.4 2.1-.97 2.58-1.68.57-.95.93-3.27 1.07-6.94.05-1 .14-7.77.29-20.32v-33.13c0-6.49-.07-12.83-.21-19.03-.14-4.53-.49-7.21-1.04-8.05-.55-.83-1.43-1.45-2.65-1.86-1.22-.4-4.66-.66-10.34-.75v-4.58c9.25.29 16.34.43 21.25.43 4.87 0 11.74-.14 20.61-.43v4.58c-5.63.1-9.06.35-10.3.75-1.24.41-2.07.97-2.5 1.68-.62.95-1 3.27-1.15 6.94 0 .95-.1 7.73-.29 20.32v14.74c2.58-1.38 5.63-3.79 9.16-7.23l9.02-8.73 15.96-15.96c6.15-6.15 9.95-10.11 11.38-11.88v-5.22c5.68.19 10.14.29 13.38.29 3.48 0 7.23-.1 11.23-.29v4.65c-4.53 0-7.58.19-9.16.57-1.57.38-3.12 1.1-4.65 2.15-3.05 2.24-7.73 6.25-14.03 12.02l-28.55 26.12 42.93 40.21c6.92 6.49 10.85 10.02 11.81 10.59.95.57 2.79.88 5.51.93v4.44c-4.68-.19-7.8-.29-9.37-.29-1.77 0-5.49.1-11.16.29-1.1-1.1-5.08-4.94-11.95-11.52l-7.37-7.08-32.49-30.48-1.65.93v13.88c0 6.49.1 12.81.29 18.96.1 4.53.42 7.23.97 8.09.55.86 1.44 1.49 2.68 1.9 1.24.4 4.67.65 10.3.74z"/>
  <path d="M481.53 239.35v-3.72c2.96-1.38 4.84-2.48 5.65-3.29.48-.43.81-.98 1-1.65.43-1.33.71-4.2.86-8.59.19-6.54.29-10.42.29-11.66v-38.5c0-6.49-.07-12.83-.21-19.03-.14-4.53-.49-7.21-1.04-8.05-.55-.83-1.43-1.45-2.65-1.86-1.22-.4-4.66-.66-10.34-.75v-4.58c11.64.38 18.84.57 21.61.57 3.05 0 9.9-.19 20.54-.57v4.58c-5.68.1-9.12.35-10.34.75-1.22.41-2.06.97-2.54 1.68-.57.95-.93 3.27-1.07 6.94-.05.95-.14 7.73-.29 20.32v48.09c0 5.01.1 9.09.29 12.24 5.44.33 10.83.5 16.17.5 13.45 0 22.87-.86 28.26-2.58.62-1.43 1.17-3.08 1.65-4.94l2.86-11.88h4.79c-1.05 7.11-2.07 15.46-3.08 25.04-1.96.38-3.51.62-4.65.71-2.48.14-6.3.21-11.45.21l-42.36-.57c-4.58.02-9.23.21-13.95.59z"/>
  <path d="M0 277.85v-4.58c5.01.19 9.8.29 14.38.29 4.63 0 9.06-.1 13.31-.29 4.2 9.54 8.04 17.91 11.52 25.12l27.12 55.81 24.47-51.16c6.68-13.93 11.14-23.85 13.38-29.77 5.06.19 9.33.29 12.81.29 3.19 0 8.37-.1 15.53-.29v4.58c-5.68.1-9.12.35-10.34.75-1.22.41-2.06.97-2.54 1.68-.62.96-.98 3.27-1.07 6.94-.05.95-.17 7.73-.36 20.32v33.13c0 6.49.1 12.81.29 18.96.14 4.53.49 7.23 1.04 8.09.55.86 1.43 1.49 2.65 1.9 1.22.41 4.66.66 10.34.75v4.58c-9.64-.43-16.43-.64-20.39-.64-3.2 0-10.26.21-21.18.64v-4.58c5.68-.1 9.13-.35 10.38-.75 1.24-.4 2.08-.97 2.5-1.68.62-.95.98-3.27 1.07-6.94.05-1 .17-7.77.36-20.32v-52.52l-24.69 51.66c-3.86 8.06-6.89 14.55-9.09 19.46-1.57 3.58-3.96 9.25-7.16 17.03h-2.79c-.62-1.81-1.19-3.27-1.72-4.36l-4.87-10.38-34.2-71.05v50.16c0 6.49.1 12.81.29 18.96.14 4.53.49 7.23 1.04 8.09.55.86 1.43 1.49 2.65 1.9 1.22.41 4.66.66 10.34.75v4.58l-17.25-.57-17.82.56v-4.58c5.63-.1 9.06-.35 10.3-.75 1.24-.4 2.1-.97 2.58-1.68.57-.95.93-3.27 1.07-6.94.05-1 .14-7.77.29-20.32v-33.13c0-6.49-.07-12.83-.21-19.03-.14-4.53-.49-7.22-1.04-8.05-.55-.83-1.43-1.45-2.65-1.86-1.22-.42-4.66-.67-10.34-.76z"/>
  <path d="M138.6 277.85v-4.58c5.01.19 9.8.29 14.38.29 4.63 0 9.06-.1 13.31-.29 4.2 9.54 8.04 17.91 11.52 25.12l27.12 55.81 24.47-51.16c6.68-13.93 11.14-23.85 13.38-29.77 5.06.19 9.33.29 12.81.29 3.19 0 8.37-.1 15.53-.29v4.58c-5.68.1-9.12.35-10.34.75-1.22.41-2.06.97-2.54 1.68-.62.96-.98 3.27-1.07 6.94-.05.95-.17 7.73-.36 20.32v33.13c0 6.49.1 12.81.29 18.96.14 4.53.49 7.23 1.04 8.09.55.86 1.43 1.49 2.65 1.9 1.22.41 4.66.66 10.34.75v4.58c-9.64-.43-16.43-.64-20.39-.64-3.2 0-10.26.21-21.18.64v-4.58c5.68-.1 9.13-.35 10.38-.75 1.24-.4 2.08-.97 2.5-1.68.62-.95.98-3.27 1.07-6.94.05-1 .17-7.77.36-20.32v-52.52l-24.69 51.66c-3.86 8.06-6.89 14.55-9.09 19.46-1.57 3.58-3.96 9.25-7.16 17.03h-2.79c-.62-1.81-1.19-3.27-1.72-4.36l-4.87-10.38-34.2-71.05v50.16c0 6.49.1 12.81.29 18.96.14 4.53.49 7.23 1.04 8.09.55.86 1.43 1.49 2.65 1.9 1.22.41 4.66.66 10.34.75v4.58l-17.25-.57-17.82.57v-4.58c5.63-.1 9.06-.35 10.3-.75 1.24-.4 2.1-.97 2.58-1.68.57-.95.93-3.27 1.07-6.94.05-1 .14-7.77.29-20.32v-33.13c0-6.49-.07-12.83-.21-19.03-.14-4.53-.49-7.22-1.04-8.05-.55-.83-1.43-1.45-2.65-1.86-1.21-.43-4.66-.68-10.34-.77z"/>
  <path d="M277.99 324.79c0-7.54 1.13-14.5 3.4-20.89 2.27-6.39 6.02-12.14 11.27-17.24 5.25-5.1 11.19-8.96 17.82-11.56 6.63-2.6 14.21-3.9 22.75-3.9 7.87 0 15.03 1.11 21.47 3.33 6.44 2.22 11.72 5.15 15.85 8.8 4.13 3.65 7.38 7.64 9.77 11.99 1.81 3.24 3.26 7.06 4.33 11.45 1.07 4.39 1.61 9.09 1.61 14.1 0 16.08-5.4 29.46-16.21 40.14-10.81 10.69-24.44 16.03-40.89 16.03-7.49 0-14.48-1.22-20.97-3.65-6.49-2.43-11.97-6.05-16.46-10.84-4.48-4.79-7.9-10.61-10.23-17.46-2.34-6.86-3.51-13.63-3.51-20.3zm14.89-5.94c0 4.53.45 9.14 1.36 13.81.91 4.68 2.05 8.71 3.44 12.09 2.29 5.72 5.28 10.53 8.98 14.42 3.7 3.89 7.82 6.75 12.38 8.59 4.55 1.84 9.6 2.76 15.13 2.76 7.68 0 14.36-1.87 20.03-5.62 5.68-3.74 9.91-9.02 12.7-15.81 2.79-6.8 4.19-14.63 4.19-23.51 0-7.58-1-14.57-3.01-20.97-1.24-3.91-2.89-7.45-4.94-10.63-2.05-3.17-4.5-5.94-7.33-8.3-2.84-2.36-6.52-4.35-11.06-5.98-4.53-1.62-9.42-2.43-14.67-2.43-7.59 0-14.24 1.69-19.96 5.08-5.72 3.39-10.03 8.29-12.92 14.7-2.88 6.43-4.32 13.69-4.32 21.8z"/>
  <path d="M393.55 277.85v-4.58c9.59.29 17.17.43 22.75.43 3.72 0 7.68-.05 11.88-.14l11.23-.36c1.24-.05 2.38-.07 3.43-.07 7.58 0 13.55.83 17.89 2.5s7.73 4.33 10.16 7.98c2.43 3.65 3.65 7.81 3.65 12.49 0 4.2-1.01 8.37-3.04 12.52-2.03 4.15-4.97 7.67-8.84 10.55-3.86 2.89-7.89 4.95-12.09 6.19-2.86.86-6.11 1.29-9.73 1.29-3.05 0-6.34-.33-9.87-1l-1.5-5.37c4.25.96 7.58 1.43 10.02 1.43 3.58 0 6.98-.87 10.2-2.61 3.22-1.74 5.72-4.36 7.51-7.86s2.68-7.37 2.68-11.61c0-4.1-.87-7.8-2.61-11.11-1.74-3.31-4.39-5.82-7.94-7.54-3.55-1.71-7.86-2.57-12.92-2.57-4.53 0-9.4.81-14.6 2.43-.43 5.06-.64 12.98-.64 23.76v36.06c0 6.49.07 12.81.21 18.96.14 4.53.49 7.23 1.04 8.09.55.86 1.43 1.49 2.65 1.9 1.22.41 4.66.66 10.34.75v4.58c-8.83-.38-15.31-.57-19.46-.57-1.62 0-9.09.19-22.4.57v-4.58c5.63-.1 9.06-.35 10.3-.75 1.24-.4 2.1-.97 2.58-1.68.57-.95.93-3.27 1.07-6.94.05-1 .14-7.77.29-20.32v-33.13c0-6.49-.07-12.83-.21-19.03-.14-4.53-.49-7.22-1.04-8.05-.55-.83-1.43-1.45-2.65-1.86-1.21-.41-4.66-.66-10.34-.75z"/>
  <path d="M516.91 393.26v-4.65c7.82-6.11 14.02-9.97 18.6-11.59-12.07 0-21.82-1.98-29.27-5.94-7.44-3.96-13.41-10.18-17.89-18.68-4.48-8.49-6.73-17.96-6.73-28.41 0-15.36 5.08-27.99 15.24-37.89 10.16-9.9 23.52-14.85 40.07-14.85 8.25 0 15.65 1.17 22.18 3.51 6.54 2.34 11.96 5.54 16.28 9.62 4.32 4.08 7.62 8.57 9.91 13.49 3.1 6.63 4.65 14.24 4.65 22.83 0 10.21-2.14 19.43-6.41 27.66s-10.51 14.87-18.71 19.93c-8.21 5.06-17.46 7.97-27.76 8.73 2.58.43 4.89.94 6.94 1.54 2.05.6 5.01 1.68 8.87 3.26 8.68 3.48 15.01 5.74 19 6.76 3.98 1.03 7.41 1.54 10.27 1.54 1.91 0 4.44-.5 7.59-1.5v3.65c-.96.72-2.1 1.43-3.43 2.15-2.53 1.43-4.28 2.49-5.26 3.18-.98.69-1.94 1.49-2.9 2.4-.67 0-2.22-.17-4.65-.5-2.43-.33-4.93-.85-7.48-1.54-2.55-.69-7.05-2.16-13.49-4.4-12.16-4.15-19.63-6.23-22.4-6.23-.95 0-1.96.17-3.01.5-1.05.33-2.24.86-3.58 1.57l-6.63 3.86zm-20.39-72.91c0 4.68.63 9.73 1.9 15.17 1.26 5.44 2.98 10.21 5.15 14.31s4.85 7.7 8.05 10.8c3.2 3.1 6.89 5.53 11.09 7.3 4.2 1.77 9.11 2.65 14.74 2.65 7.68 0 14.38-1.76 20.11-5.3 5.72-3.53 10.04-8.78 12.95-15.74 2.91-6.96 4.36-14.91 4.36-23.83 0-7.35-.99-14.14-2.97-20.39-1.98-6.25-4.66-11.36-8.05-15.35-3.39-3.98-7.66-7.08-12.81-9.3-5.15-2.22-10.88-3.33-17.17-3.33-11.5 0-20.6 3.6-27.3 10.8-6.7 7.21-10.05 17.95-10.05 32.21z"/>
</svg>