<?xml version="1.0" encoding="utf-8"?>
<!-- Generator: Adobe Illustrator 24.3.0, SVG Export Plug-In . SVG Version: 6.00 Build 0)  -->
<svg version="1.1" id="Lager_1" xmlns="http://www.w3.org/2000/svg" xmlns:xlink="http://www.w3.org/1999/xlink" x="0px" y="0px"
	 viewBox="0 0 400 800" style="enable-background:new 0 0 400 800;" xml:space="preserve">
<style type="text/css">
	.st0{fill:#F2F2F2;stroke:#020203;stroke-width:0.2;stroke-miterlimit:16;}
</style>
<path class="st0" d="M181.46,683.72l1.62,1.33l-2.51,2.88l0.88,2.58l-2.73,7.15l-1.11,5.09l-1.92,2.88l0.44,3.02l-1.55,5.31
	l-1.47,0.96l-2.43,9.66l-1.7,4.5l-2.14,12.9l-2.29,6.27l-2.51,0.66l-0.81-18.29l1.62-5.46l5.01-13.71l3.02-1.25l5.09-13.27
	l0.52-4.87l1.55-1.7l0.07-4.28l2.73-3.24L181.46,683.72 M168.41,646.56l3.02,4.2l-1.7-0.74l1.03,3.02l-3.61-2.51l-4.06-4.42
	l0.59,2.8l1.77,0.81l-0.74,2.8l-3.17-0.29l6.78,7.37l-1.7-0.52l-2.51-3.69l-3.91-3.17l5.6,6.93l3.02,2.65l0.59,2.14l-4.06-1.11
	l1.77,4.65l-3.54,3.76l3.61,0.44l1.99,4.87l-1.55,1.4l1.11,1.92l-1.25,1.99h-2.65l0.59,3.69l-2.43,1.47l-0.44,6.78l2.51,3.39
	l1.4,4.2l-1.99-1.03l-2.51,2.95l0.96,3.76l-1.7,8.18l0.66,1.47l-2.29,1.47l0.81,4.79l-3.91,1.55l-1.25,5.9l-3.69,7.59l-0.81,4.87
	l-2.8,0.59l-5.82-2.73l-6.64-7.3l-2.65,0.81l-3.02-0.88l-1.84,1.25l1.4-4.5l0.37-6.86l-0.88-4.65l5.24-4.65l-0.96-3.83l2.06-1.18
	l1.92,1.18l4.06-0.37l1.99-2.95l-1.33-3.61l-4.28-6.27l-2.58-1.55l-1.25-3.17l-1.84-5.24l0.88-1.62l0.07-6.41l0.74-1.62l1.92,1.25
	l1.55-3.69l-1.47-3.24l1.47-2.14l-6.93-6.27l0.52-2.29l2.88-1.62l2.51-3.98l4.06-0.74l5.09,2.21l3.39-2.58v-4.13l1.03-2.43
	l-1.7-3.47l0.44-2.58l4.13,0.37l0.66-1.77l3.24-1.33l4.2-0.15l4.87,2.65l1.62,4.94l0.52,0.07l0,0l0,0l0,0h0.15l0,0l0,0l0,0
	L168.41,646.56z"/>
<path class="st0" d="M173.05,622.53l-0.81,2.65l-0.07,1.62l-1.33-3.02L173.05,622.53 M130.14,663.3l-7.67-0.66l-1.33-0.96
	l-2.29-6.78l-1.7-3.32l0.88-4.87l1.47-0.96l-3.39-8.18l-4.79,3.47l-7.3-0.96l-3.47-2.51l-1.7-4.06l11.8-24.41l2.51-2.06l3.54-1.03
	l4.79-6.34l3.24-2.21h4.5l3.32-1.7l2.51-5.38l2.95-1.11l1.62,0.88l2.14-2.36l6.93,4.79l6.71,5.75l4.87,7.59l5.38,0.07l4.65,3.02
	l-16.66-1.62l1.62,3.02l1.11-1.18l2.73,2.21l0.81-2.95l2.43,1.25l3.54-0.15l4.72,0.96l1.7,3.54l3.24,2.14l-3.47,3.32l-3.32,0.96
	l-8.33-1.99l8.18,4.42l1.92,3.17l-4.35-0.74l2.14,1.99l3.02-0.37l-2.8,2.73l3.02,1.92l0.66,3.76l-1.25,2.88l-5.01-4.13l3.76,6.78
	l0.22,2.65l-2.36,2.88l0,0l0,0l0,0l-0.52-0.07l-1.62-4.94l-4.87-2.65l-4.2,0.15l-3.24,1.33l-0.66,1.77l-4.13-0.37l-0.44,2.58
	l1.7,3.47l-1.03,2.43v4.13l-3.39,2.58l-5.09-2.21l-4.06,0.74l-2.51,3.98l-2.88,1.62L130.14,663.3 M167.74,646.49l0.15-0.07
	l0.52,0.15L167.74,646.49L167.74,646.49 M167.59,646.49h0.15l0,0h-0.22H167.59L167.59,646.49L167.59,646.49L167.59,646.49z"/>
<path class="st0" d="M292.13,199.37l-0.66,0.88l0.44,1.77l-2.65-3.17L292.13,199.37 M307.17,187.13l-0.07,1.99l-2.51-2.8l0.96-1.4
	L307.17,187.13 M326.27,182.05l-1.18,2.88l-1.55-1.18v-1.62L326.27,182.05 M302.89,186.91l-2.06-0.37l-0.07-2.43l1.4,0.74
	L302.89,186.91 M127.48,161.18l-1.18-7.89l5.53-6.34l8.26-16.88l1.92-2.73l6.49-7l0.29-8.63l-7.23-12.76l1.47-5.01l3.76-0.81
	l2.51-2.21l2.65-5.24l3.02-13.49l0.96-1.92l8.7-7.82l2.06-3.91l12.83,7.37l0.59-0.22l4.79-11.06l0.37-2.36l-1.77-11.35l0.37-8.18
	l5.53-2.51l4.65,3.98l8.33-0.81l9.81,4.06l9.95,3.54l1.62-0.88l4.5-7l-6.34-3.24l3.69-4.13l1.55-3.17l1.77-8.63l-0.81-6.12
	l-5.53-6.05L233.29,0l3.76,1.11l3.1,2.29L240,7.67l3.61,1.11l3.32,2.73l2.43,3.47l1.92,0.07l1.62,3.47l5.75,3.32l0.59,1.77
	l3.98,0.74l3.83,4.87l4.94-0.52l6.78,2.21l3.32,1.84l1.18-0.66l2.51,3.1l3.47,1.77l2.8,4.42l0.59,5.01l2.51-1.18l1.4,0.81l1.7,4.28
	l6.93,5.97l-3.1,3.39l0.88,8.41l2.65,8.48l-1.47,2.06l-0.37,4.13l1.33,2.29l2.51-0.88l4.06,1.4l0.44,7.59l-2.73,2.06l0.37,6.27
	l2.36,2.95l0.81,2.73l3.54,3.83l3.39,4.65l2.14,4.13l-1.92,3.91l1.33,10.84l-3.02,3.98l-1.47,4.13l1.4,4.13l0.22,3.39l2.14,5.46
	l4.2,2.14l3.98,5.97l1.7,5.75l3.39,5.75l-0.22,2.21l-4.2,1.47l-0.44,1.77l-6.19-3.24l-1.77,1.47l-2.95,0.07l-2.06,2.65l-0.59-2.73
	l-1.84,1.84l-1.62-1.4l-0.66,2.06l2.21,1.25l-0.15,3.17l-1.84-2.36l-2.29,3.02l-1.18-3.02l-5.24-2.06l-1.7-3.1l-3.83-1.92l1.47,2.29
	l0.52,5.68l-3.76-2.14l-1.62-2.58h-2.58l-0.74,3.61l0.59,3.83l1.92,3.47l-3.24-0.81l1.55,4.57l1.77-1.55l1.7,4.79l-4.2-1.92v1.25
	l-10.03-4.94l-2.8-2.95l0.81,2.36l8.63,5.09l1.62,2.36l-2.29,1.55l-5.38-0.44l4.72,3.47l-0.29,2.06l-1.77-1.03l0.22,2.43l-3.54,1.03
	l0.81,3.1l-2.36-1.92h-5.68l-0.81,2.21l2.51,1.99l1.4-1.03l2.65,2.51l-2.73,3.1l-2.14-3.17l-4.28-4.06l-1.77,2.29l3.17,0.52
	l4.13,4.94l2.43,4.57l-1.7,0.81l1.33,3.98l-8.26-4.87l-28.76-5.97l-9.73,4.35l-1.62,2.51l-5.31,3.1l-3.91-2.73l-0.66-2.73
	l-4.79-2.43l-1.47-1.84l-4.13-1.62l-3.1-3.76l-3.39,0.07l-2.51-2.06l-5.31-2.58l-1.77-2.8l-9.81-3.98l-7.67-5.38l-14.53-14.08
	l-9.14-3.83l-15.12-11.35L127.48,161.18z"/>
<path class="st0" d="M198.71,368.88l1.84-0.07l-0.81,3.47l-2.58,0.37l-0.15-3.54L198.71,368.88 M184.26,404.42l-7.89-1.47h-5.38
	l-14.3-3.69l-7.52-0.44l-15.85-5.24l-2.58,0.37l-4.65,3.91l-4.5,0.52l-3.39-1.4l-5.82-7.37l0.52-3.32l-1.18-5.97l4.5-1.47l4.79,0.44
	l11.65-3.02l7.37-3.39l11.35-1.03l2.06-1.25l6.86-10.47l8.04-3.47l0.07-0.88l-21.24-21.82l-1.18-2.43l-3.1-2.36l-0.88-5.75
	l-2.06-4.5l0.66-1.4l5.75-2.36l2.58,0.52l5.75-0.96l2.65-1.84l0.81-6.71l2.73-9.66l4.06,3.24l21.31,3.32l15.93-6.19l2.73,0.52
	l-0.81,2.58l2.51,4.28l4.06,0.88l7.37,3.17l0.66,1.99l2.8,2.21l3.69,5.6l3.32,7.74h-0.88l0.15,6.78l-3.47,2.21l-0.15,5.16
	l-1.84,2.58l-3.76-5.01l-3.83,1.7l4.2,1.47l-0.37,1.62l-4.87-1.7l1.33,3.54l-3.83-1.03l0.96,3.98l-2.21-0.29l0.37,3.54l-1.4,2.43
	l-2.8-2.21l0.88,2.36l-1.7-0.29l-2.65,1.92l6.86-0.44l0.22,2.21l-2.95-0.74l-0.59,1.4l3.24,2.21l-2.95-0.22l1.99,2.43l-3.61,1.77
	l-1.84-2.43l-1.47,2.88l1.99-0.44l-2.14,3.83l-3.1,0.37l-1.25-2.14l2.95-0.81l-2.51-1.62l-2.21,2.73l-1.11-0.81l-0.37-5.38
	l-0.88,1.4l-2.29-5.01l-3.1-0.66l3.39,2.8l2.14,4.13v3.24l3.32,1.7l0.07,6.86l-3.39-0.22l4.72,2.43l0.66,1.7l-2.51,2.14l-0.59-3.1
	l-0.96,3.83l-2.14,3.83l-3.54-0.59l-0.81,2.14l1.4,1.4l-4.28-0.52l-3.24-5.01l-2.51,2.36l1.18,5.01l-1.03,0.44l1.62,4.35l1.18-0.15
	l0.74,3.32l5.31,2.14l-2.14,1.7l-1.7-0.74L184.26,404.42z"/>
<path class="st0" d="M267.65,309.97l-0.07-3.83l1.33-1.92v4.06L267.65,309.97 M228.5,325.82l-3.32-7.74l-3.69-5.6l-2.8-2.21
	l-0.66-1.99l-7.37-3.17l-4.06-0.88l-2.51-4.28l0.81-2.58l-2.73-0.52l-15.93,6.19l-21.31-3.32l-4.06-3.24l-12.61-13.57l-1.77-1.03
	l-2.73,0.74l-2.58-5.24l-5.01-4.2l-1.18-4.65l-1.77-1.18l-1.84,3.24l-1.7-3.98l-6.05-5.97l1.7-1.25l-2.29-3.32l-3.91-1.92
	l-2.21-5.09l-3.39-2.06l-4.35-7.08l-9.14-6.71l1.7-8.11l2.8-3.61v-8.55l1.33-13.71l1.84-4.65l0.22-3.61l-2.36-16.44l12.02-1.55
	l10.03-7.15l-0.15-4.65l9.14,4.5l15.12,11.35l9.14,3.83l14.53,14.08l7.67,5.38l9.81,3.98l1.77,2.8l5.31,2.58l2.51,2.06l3.39-0.07
	l3.1,3.76l4.13,1.62l1.47,1.84l4.79,2.43l0.66,2.73l3.91,2.73l5.31-3.1l1.62-2.51l9.73-4.35l28.76,5.97l8.26,4.87l-2.73,0.96
	l1.03,1.92l-1.92,0.59l-0.74,3.24l-3.02,0.52l-1.11,7.15l-1.62,0.96l-0.88-1.99l-0.81,2.29l1.99,2.06l2.51-0.74l2.29,1.03l-1.77,1.4
	l2.29,2.58l-0.66,1.7l-3.69-3.24l-0.74,1.03l3.32,2.95l0.59,2.21l2.73,2.58l0.52-2.14l2.58,3.24l-1.77,1.77l2.29,0.15l0.74,3.47
	l2.58-1.47l0.22,1.92l-1.99,1.77l-3.02,5.24l-3.1,1.7l-2.73,5.31l-0.96-0.22l-2.8,5.9l-0.52,8.55l-1.62,2.43l-0.81,4.5l-2.29,1.4
	l0.07,3.47l-1.77-1.77l-1.55,2.88l-1.25-2.58l-1.99,3.32l0.44,3.17l-1.25,1.99l-1.55-3.32l0.15,4.94l-1.77-2.36l0.15,2.73l-3.1,0.74
	l-1.33-1.25l-7.67,8.85l0.81,3.39l-2.06,2.14l-3.24-5.01l-2.95-2.14l-0.22,3.02l1.92,1.25l-0.15,4.28l-2.8-1.99L228.5,325.82z"/>
<path class="st0" d="M233.51,652.61l1.92-3.1l4.57-0.88l2.88,4.28l-3.02,1.25l-1.11,4.57l-4.2-0.07l-1.03,6.93l1.55,0.44l-1.18,5.9
	l1.03,3.32l3.76,0.37l0.81,1.99l-4.87,2.58l-3.02,4.13l1.62,3.02l-3.76,1.62l-6.19,5.6l-1.25,5.68l0.74,2.36l-1.77,2.88l-2.88,1.7
	l-2.14-0.29l3.69-7.15l0.66-2.95l-1.99,1.92l-0.07-4.2l-1.4-0.59l-1.03-4.94l-1.99-1.55l2.21-7.15l-1.11-1.62l-1.33-5.9l1.33-3.98
	l4.87-5.68l3.91-7.82l2.58-2.21l1.4,0.37l1.7-4.2l2.58-1.11L233.51,652.61 M246.49,643.1l3.69,1.33l-2.73,0.81l-3.17,2.73
	l-0.15,3.61l-3.02-3.24l1.33-3.76L246.49,643.1 M247.3,622.08l-2.36-0.15l-0.96-2.29l3.61,0.74L247.3,622.08z"/>
<path class="st0" d="M202.18,595.17l0.59,2.51l-1.7-0.07v-3.69L202.18,595.17 M212.72,589.94l4.06-2.73l-0.88,3.1l-3.61,1.11
	L212.72,589.94 M212.65,584.77l-1.99,1.25l-0.37,2.36l-2.29-1.11l1.25-2.21L212.65,584.77 M197.09,591.26l-1.47-0.29l-0.22-7.59
	l1.33,0.59l0.74,3.32L197.09,591.26 M219.72,582.56l-1.4,2.88l-1.99-1.33l0.88-2.65l2.58-2.43L219.72,582.56 M221.05,569l0.52,1.62
	l-0.44,1.84l-5.46-3.83L221.05,569 M225.92,563.76l1.4,1.25l-1.62,3.02l-1.55-3.83L225.92,563.76 M212.65,564.87l-1.03,1.55
	l-2.65-0.81l-0.15-1.84L212.65,564.87 M225.03,554.47l-2.51,2.95l-0.96,3.76l-1.55-3.47l2.29-3.32L225.03,554.47 M229.75,550.34
	l-2.36,1.84l2.58-3.69l2.88-1.03l-1.47,3.83L229.75,550.34 M233.07,537.73l0.22,1.11l-3.02,0.74l1.7-4.65L233.07,537.73
	 M225.77,517.09l-0.52,1.55l-1.47-1.25l1.03-2.14L225.77,517.09 M193.92,589.05l-1.92-1.4l-4.13-0.29l-3.47-13.2l1.33-1.62
	l0.15-4.13l3.1-1.92l-0.22-1.7l2.14-4.06l1.84-7.37l-0.52-5.01l2.58-2.58l3.17,0.88l6.56-3.76l2.36-0.15l3.32-5.24l5.09-2.73
	l0.81-5.75l1.7-1.7l-0.96-1.99l2.51-4.72l2.73-1.7l2.06,1.18l1.11,2.51l1.84-1.99l0.22,2.65l2.73,6.86l5.09,2.65l0.07,3.69
	l-1.33-0.29l-2.36-3.32l-2.21,5.75l-1.99,1.47l7.3-0.74l1.33,0.66l-1.25,2.58l-2.8,0.44l-0.88-1.55l-3.69,3.1l-3.39,4.06l0.88,1.7
	l-7.67,7.08l-4.2,1.03l-0.52,1.62l1.84,2.95l-3.54-0.44l-0.37-2.88l-2.8,1.18l0.52,1.77l-2.65,0.15l4.28,3.76l2.21,1.11l0.88-2.58
	l1.84-0.81l4.94,1.33l-1.84-5.01h1.7l3.98,3.24l1.11,2.58l-3.69,2.06l-4.57-0.29l-0.66-1.55l-1.99,1.33l0.22,2.95l1.77,1.4
	l2.65,5.46l-5.68,1.47l-3.61,3.76h-1.62l-3.91,8.55l-0.07,3.17l-1.4-3.69l-3.02,0.22l-0.22-11.72l-1.25,4.28l-1.4-1.55l0.66-3.02
	l-2.36,2.29l0.81,4.42L193.92,589.05z"/>
<path class="st0" d="M213.68,498.29l2.43,4.5l-1.62-0.66l2.36,4.94l1.03-0.66l0.96,3.47l-4.65-3.39l-0.66-2.8L213.68,498.29
	 M188.76,564.79l-0.88-1.7l-3.54-2.36l-1.7-2.36l-2.88-1.47l-5.38-0.15l-2.21-7.89l-3.39-7.89l1.92-2.36l-0.07-2.21l4.35,0.96
	l1.33,1.47l3.69-2.73l0.66-4.87l-1.33-1.33l1.25-2.95l2.73-2.21l2.21-8.63l-0.74-1.47l-4.28-3.24l-0.37-4.35l2.58-5.97l1.47-8.11
	l5.6-1.55l2.51,2.14l-1.55,1.47l1.18,3.98l2.95,0.88l-0.52-2.14l2.43-3.02l2.88-0.96l2.36,2.58l-0.66,2.43l3.83,2.58l2.51,3.69
	l2.43,0.88l-1.47,1.62l0.81,1.62l2.58-1.77l3.54,0.59l0.88,2.8l2.73,1.77l0.07,1.84l-6.86-3.02l3.54,4.2l-1.33,0.22l4.72,4.79
	l-2.51,4.72l0.96,1.99l-1.7,1.7l-0.81,5.75l-5.09,2.73l-3.32,5.24l-2.36,0.15l-6.56,3.76l-3.17-0.88l-2.58,2.58l0.52,5.01
	l-1.84,7.37L188.76,564.79z"/>
<path class="st0" d="M139.94,755.69l-0.81,2.43l-1.62-0.74l0.59-1.99L139.94,755.69 M150.78,742.93l-0.88,4.72l-3.32,4.65
	l-2.58,5.16l-2.06-1.11l1.18-3.1l-3.02,0.15l-2.73-2.14l-1.84,1.99l-0.59-2.65l-4.5,1.62l-3.69,2.29l-0.81-2.8l-1.99,1.84
	l-9.07-0.88l-5.82,0.22l-2.88,1.18l2.65,6.78l-1.7,1.7l-3.39-0.59l-0.22-2.65l-1.62,0.22l1.11-5.9l-1.4-4.87l-2.65-0.96l-1.47-5.31
	l4.13-7.59l5.9,4.42l6.12,1.18l2.58-3.76l3.54-0.96l3.54,1.18l1.03-1.4l3.69-0.88l1.84-1.25l3.02,0.88l2.65-0.81l6.64,7.3l5.82,2.73
	L150.78,742.93z"/>
<path class="st0" d="M16.07,640.74l-0.44,3.54l-1.03-1.03l-1.25,2.95l-2.06,1.47l-2.06-1.18l-0.37-5.38L16.07,640.74 M18.14,629.9
	l0.66,2.14l-0.52,4.94l-3.1,1.4l-3.69-1.62l-2.21,2.06l-3.24-2.8l0.81-1.7l5.53-4.13l1.84,0.07l0.37-2.73l2.06,0.07L18.14,629.9
	 M95.78,587.5l2.36,6.49l0.52,3.47l2.51,6.41l2.58,1.47l3.47-1.4l0.88,2.73l2.58,2.43l-11.8,24.41l-6.05,12.83l0.29,3.54l-1.11,1.47
	l-5.16,2.88l-1.4,1.99l-2.14-1.47h-5.6l0.44,4.2l-2.88,12.46l-4.57,7.45l-4.13,4.57l-3.1,2.14L57,694.71l-5.09-2.65l-0.15-4.5
	l-6.12-1.62l-2.21-2.65l-2.51-0.37l-2.65,3.02l-2.51-0.59l-1.11-4.57l0.81-2.95l-2.29-3.32v-5.38l-0.81-1.92L25,669.42l-4.87-0.81
	l-1.33-1.47l-0.52-4.42l-4.2-2.51l3.1-2.88l-3.39-3.83l0.37-2.51l2.06-1.11l-0.59-2.14l2.36-5.6l-0.59-1.92l1.55-2.95l1.25-5.6
	l-1.25-3.54l0.52-2.21l-3.02-0.74l-4.65,4.2l-2.29-1.84l1.33-3.02l4.13-4.94l-2.51,1.11L11.58,617l-1.33,7.3l-4.13,3.98l1.84-4.42
	l-0.74-5.23l-3.47,3.98l-2.36,1.03l-0.66-3.61l2.95-3.83l-1.55-2.29l1.7-4.13l-2.8-9.22l1.84-3.61l-0.66-7.15L0,586.99l0.59-3.61
	l2.88-3.32l4.06,0.15l2.51,7.82l-0.22,3.69l2.8,0.81l3.61-1.84l2.95-9.88l0.22-2.73l2.14-6.27l4.13,0.37l3.47,2.8l1.25-2.29
	l2.36-0.74l1.99,2.43l9.59,5.68l2.51-2.88l2.58,2.29l0.74,4.94l2.06,3.76l1.77,10.1l10.76,4.57l4.72-0.88l-1.84-4.87l2.51-7.23
	l1.84-2.88l2.95-2.06l18.36,0.88L95.78,587.5z"/>
<path class="st0" d="M51.91,467.91l1.25-5.38l2.14-3.1l2.21-8.33l-0.29-1.25l-6.93-10.47l-5.46-2.21l-6.64-8.55l5.53-29.42v-2.21
	l0.74-0.07l12.17,4.35l4.72,4.57l1.92,2.95l3.69,2.29l2.65-0.15l2.58,2.58l-1.62,5.68l5.09,10.76l2.21,3.76l19.02,3.76l2.36,1.03
	l2.8-0.52l5.09,1.7l1.25,4.13h10.84l2.29-3.02l7.45,11.5l5.24,5.75l1.7,3.61l0.22,3.24l2.8,3.69l3.32,1.84l6.71,1.7l3.17,6.34
	l4.13,5.46l-0.22,2.58l-3.69,5.97l-1.55,1.4l-0.07,2.58l5.82,9.29l4.2,3.47l5.24,8.11l-0.44,1.11l-4.2,1.33l-2.21,3.83l-4.42,1.99
	l-4.5-1.47l-0.44-2.58l-5.16-2.29l-4.65,0.74l-1.84,1.84l-1.25,4.5l0.59,3.98l-1.18,1.84l-4.35-0.15l-2.29,5.24l-6.34-7.67
	l-10.32-4.28l-0.81-1.62l-2.43,1.11v4.35l-9.29-0.81l-5.6-4.2l-2.8-7.08l-4.79-1.77l-0.52,3.54l-3.69-3.83l-4.87-8.48l-3.98-2.43
	l-7.3-13.86l-1.84-1.92l-2.58-6.05l-9.36-10.99L51.91,467.91z"/>
<path class="st0" d="M165.97,517.31l-5.24-8.11l-4.2-3.47l-5.82-9.29l0.07-2.58l1.55-1.4l3.69-5.97l0.22-2.58l-4.13-5.46l-3.17-6.34
	l-6.71-1.7l-3.32-1.84l-2.8-3.69l-0.22-3.24l-1.7-3.61l-5.24-5.75l-7.45-11.5l-2.29,3.02h-10.84l-1.25-4.13l-5.09-1.7l1.11-2.29
	l0.66-5.31l1.62-5.16l3.61-3.98l2.88,4.87v-2.51l3.39-0.81l4.5,0.15l0.52-5.31l-0.52-3.32l7.89-6.86l1.03-2.51l-2.65-7.08l4.65-3.91
	l2.58-0.37l15.85,5.24l7.52,0.44l14.3,3.69h5.38l7.89,1.47l-0.59,5.01l-2.88,6.27l-0.22,7.37l1.92,0.37v5.75l2.29-0.81l1.11,1.84
	l-0.52,3.91l-1.4,0.22l-2.43-4.35l-0.29,1.84l-3.54-2.73l-2.43,0.15l3.69,1.92l-1.99,2.88l0.96,2.21l-4.65,1.4l3.69,1.47l-2.95,0.37
	l2.8,3.54l-1.84,5.16l2.88,3.54l-0.37,2.65l-2.58-1.62l3.39,4.87l-1.62,1.84l1.33,5.53l-0.59,3.61l2.36,1.92l-2.21,1.25l3.54,8.7
	l0.96,5.53l-3.32,2.58l5.09,2.95l0.37,1.4l-1.47,8.11l-2.58,5.97l0.37,4.35l-3.02,1.55l-3.98-0.59l-1.84,3.02l-2.95,2.14
	L165.97,517.31z"/>
<path class="st0" d="M133.75,692.28l-4.28-1.4l-8.11-0.15l0.52,2.43l-7.08,2.65l-1.84-2.88l-2.58-1.55l-2.88,0.44l-10.62,4.42
	l-0.88,7l1.11,3.91l-1.84,3.54l-3.24-1.4l-2.29-5.68l-2.95-2.14l-3.61,0.66l-2.51,1.92l-2.88-1.84l-2.8,2.95l-2.73-2.21l-0.37-2.73
	l-3.24-2.43l-2.95-0.74l-4.94,1.18l-2.88,3.39l-1.84-4.2l0.96-2.73l6.49-9.14l3.1-2.14l4.13-4.57l4.57-7.45l2.88-12.46l-0.44-4.2
	h5.6l2.14,1.47l1.4-1.99l5.16-2.88l1.11-1.47l-0.29-3.54l6.05-12.83l1.7,4.06l3.47,2.51l7.3,0.96l4.79-3.47l3.39,8.18l-1.47,0.96
	l-0.88,4.87l1.7,3.32l2.29,6.78l1.33,0.96l7.67,0.66l6.93,6.27l-1.47,2.14l1.47,3.24l-1.55,3.69l-1.92-1.25l-0.74,1.62l-0.07,6.41
	l-0.88,1.62L133.75,692.28z"/>
<path class="st0" d="M74.99,705.18l2.8-2.95l2.88,1.84l2.51-1.92l3.61-0.66l2.95,2.14l2.29,5.68l3.24,1.4l1.84-3.54L96,703.26
	l0.88-7l10.62-4.42l2.88-0.44l2.58,1.55l1.84,2.88l7.08-2.65l-0.52-2.43l8.11,0.15l4.28,1.4l1.25,3.17l2.58,1.55l4.28,6.27
	l1.33,3.61l-1.99,2.95l-4.06,0.37l-1.92-1.18l-2.06,1.18l0.96,3.83l-5.24,4.65l0.88,4.65l-0.37,6.86l-1.4,4.5l-3.69,0.88l-1.03,1.4
	l-3.54-1.18l-3.54,0.96l-2.58,3.76l-6.12-1.18l-5.9-4.42l-8.41-2.73l-5.82-1.11l-3.32,3.54l-13.49,3.02l-2.36-0.07l-1.55-3.98v-3.91
	l-4.28-8.41l0.59-7.52l1.03-2.06l8.63-2.06l1.77-1.55L74.99,705.18z"/>
<path class="st0" d="M100.42,528.29l9.29,0.81v-4.35l2.43-1.11l0.81,1.62l10.32,4.28l6.34,7.67l0.66,3.39l1.84,1.03l1.25,3.76
	l-0.59,6.05l2.43,0.52l1.18,4.65l1.77,0.44l-0.59,2.8l1.03,2.95l-3.17,1.84l-0.29,6.78l4.42,5.01l0.81,4.87l-2.73,1.62l-2.14,3.39
	l2.51,2.95l-2.95,1.11l-2.51,5.38l-3.32,1.7h-4.5l-3.24,2.21l-4.79,6.34l-3.54,1.03l-2.51,2.06l-2.58-2.43l-0.88-2.73l-3.47,1.4
	l-2.58-1.47l-2.51-6.41l-0.52-3.47l-2.36-6.49l0.66-4.65l-0.59-3.83l0.59-8.04l4.28-11.43l-1.18-2.51l1.4-1.25l-0.81-7.23
	l-0.74-13.86l-1.84-1.99l3.02-2.43L100.42,528.29z"/>
<path class="st0" d="M139.58,576.44l-4.42-5.01l0.29-6.78l3.17-1.84l-1.03-2.95l0.59-2.8l-1.77-0.44l-1.18-4.65l-2.43-0.52
	l0.59-6.05l-1.25-3.76l-1.84-1.03l-0.66-3.39l2.29-5.24l4.35,0.15l1.18-1.84l-0.59-3.98l1.25-4.5l1.84-1.84l4.65-0.74l5.16,2.29
	l0.44,2.58l4.5,1.47l4.42-1.99l2.21-3.83l4.2-1.33l0.44-1.11l2.73,0.22l2.95-2.14l1.84-3.02l3.98,0.59l3.02-1.55l4.28,3.24
	l0.74,1.47l-2.21,8.63l-2.73,2.21l-1.25,2.95l1.33,1.33l-0.66,4.87l-3.69,2.73l-1.33-1.47l-4.35-0.96l0.07,2.21l-1.92,2.36
	l3.39,7.89l2.21,7.89l-3.47,1.4l-16.52,3.69l0.81,3.69l-3.1,1.7l-5.97,0.22l-2.8,4.72l-0.22,2.14L139.58,576.44z"/>
<path class="st0" d="M57,694.71l-0.96,2.73l1.84,4.2l2.88-3.39l4.94-1.18l2.95,0.74l3.24,2.43l0.37,2.73l2.73,2.21l-0.59,2.88
	l-1.77,1.55L64,711.67l-1.03,2.06l-0.59,7.52l4.28,8.41v3.91l1.55,3.98l-3.61,0.22l-5.24,4.28l-7.89-2.21l-0.15-3.91l-2.06-1.84
	l0.88-4.13l-1.77-6.05h-4.5l-3.54-6.12l-0.37-4.13l-3.98-4.28l-2.95-1.25L32,701.79l-1.92-1.4l-2.14-9.95l-2.8-1.47l1.55-2.8
	l-1.33-3.61l-1.55-0.29l1.99-2.43l-1.4-3.83l-1.7,1.4l-0.66,3.91l-1.84,0.22l-0.74-5.16l0.66-7.74l4.87,0.81l7.37-2.21l0.81,1.92
	v5.38l2.29,3.32l-0.81,2.95l1.11,4.57l2.51,0.59l2.65-3.02l2.51,0.37l2.21,2.65l6.12,1.62l0.15,4.5L57,694.71z"/>
<path class="st0" d="M193.92,589.05l1.33,2.73l-2.65,0.96l1.7,1.99l-3.69-0.07l-0.07,4.65l-3.76-0.74l0.74,3.17l-2.43,1.25
	l-3.39,0.07l-2.36-1.84l-0.66,3.17l2.58,0.74l-1.55,2.14l-3.61-1.33l1.92,2.51l-3.32,0.96l-4.35-0.37l-4.65-3.02l-5.38-0.07
	l-4.87-7.59l-6.71-5.75l-6.93-4.79l-2.14,2.36l-1.62-0.88l-2.51-2.95l2.14-3.39l2.73-1.62l-0.81-4.87l3.54-2.14l0.22-2.14l2.8-4.72
	l5.97-0.22l3.1-1.7l-0.81-3.69l16.52-3.69l3.47-1.4l5.38,0.15l2.88,1.47l1.7,2.36l3.54,2.36l0.88,1.7l0.22,1.7l-3.1,1.92l-0.15,4.13
	l-1.33,1.62l3.47,13.2l4.13,0.29L193.92,589.05z"/>
<path class="st0" d="M100.42,528.29l0.15,1.99l-3.02,2.43l1.84,1.99l0.74,13.86l0.81,7.23l-1.4,1.25l1.18,2.51l-4.28,11.43
	l-0.59,8.04l0.59,3.83l-0.66,4.65l-2.51-1.7l-18.36-0.88l-2.95,2.06l-1.84,2.88l-2.51,7.23l1.84,4.87l-4.72,0.88l-10.76-4.57
	l-1.77-10.1l-2.06-3.76l-0.74-4.94l-2.58-2.29l-2.51,2.88l-9.59-5.68l-1.99-2.43l-2.36,0.74l-1.25,2.29l-3.47-2.8l-4.13-0.37
	l-0.44-6.49l-2.58-11.72l0.66-3.61l4.06-1.99l1.99-2.58l0.52-3.69l-1.62-4.06l0.29-1.99l2.8-1.55l5.82,0.44l4.42-3.32l4.79-5.16
	l1.99-3.83l0.52-4.65l-0.81-5.68l3.32-5.68l0.22-6.93l-2.88-8.41l-2.73-5.75l-1.47-8.63l-1.47-4.72l0.81-1.92l6.56-1.7l4.79,0.66
	l0.81-0.96l1.18,3.32l9.36,10.99l2.58,6.05l1.84,1.92l7.3,13.86l3.98,2.43l4.87,8.48l3.69,3.83l0.52-3.54l4.79,1.77l2.8,7.08
	L100.42,528.29z"/>
<path class="st0" d="M102.05,437.97l-2.8,0.52l-2.36-1.03l-19.02-3.76l-2.21-3.76l-5.09-10.76l1.62-5.68l-2.58-2.58l-2.65,0.15
	l-3.69-2.29l-1.92-2.95l-4.72-4.57l-12.17-4.35l-0.74,0.07l-0.66-3.69l-4.57-14.82l2.14-8.48l-1.18-8.92l0.29-2.14l3.32-4.42
	l-5.31-16.96l5.97-9.36l0.52-2.43l-1.03-5.9l3.32-3.32l5.24-8.63l5.38-8.33l1.99-1.99l5.9-3.69l6.49-1.7l17.84,5.09l1.11-0.52
	l4.28-8.63l0.37-2.14l-0.96-13.71l-1.33-2.06l-3.02-0.88l-7.3-5.53l17.55-30.6l9.14,6.71l4.35,7.08l3.39,2.06l2.21,5.09l3.91,1.92
	l2.29,3.32l-1.7,1.25l6.05,5.97l1.7,3.98l1.84-3.24l1.77,1.18l1.18,4.65l5.01,4.2l2.58,5.24l2.73-0.74l1.77,1.03l12.61,13.57
	l-2.73,9.66l-0.81,6.71l-2.65,1.84l-5.75,0.96l-2.58-0.52l-5.75,2.36l-0.66,1.4l2.06,4.5l0.88,5.75l3.1,2.36l1.18,2.43l21.24,21.82
	l-0.07,0.88l-8.04,3.47l-6.86,10.47l-2.06,1.25l-11.35,1.03l-7.37,3.39L121,379.28l-4.79-0.44l-4.5,1.47l1.18,5.97l-0.52,3.32
	l5.82,7.37l3.39,1.4l4.5-0.52l2.65,7.08l-1.03,2.51l-7.89,6.86l0.52,3.32l-0.52,5.31l-4.5-0.15l-3.39,0.81v2.51l-2.88-4.87
	l-3.61,3.98l-1.62,5.16l-0.66,5.31L102.05,437.97z"/>
<path class="st0" d="M101.9,759.52l-2.43,1.25l-4.35,4.5l-4.57,7.59l-0.52,5.6l2.51,3.39l0.07,1.84l2.65,4.2l0.15,2.29l-6.05,7.67
	l-2.88,0.15l-7-2.73l-8.33,0.74l-1.62,1.62h-2.58L62.82,800l-3.32-0.07l-9.14-3.39l-5.6,0.88l1.03-3.02l3.02,0.66l0.88-2.88
	l-1.55-2.65l0.15-3.47l3.32-2.65l1.18-2.73l-1.55-3.17l-2.88-1.33l0.29-4.87l-3.32-3.17l-2.06-6.49l-4.42-7.08l-3.02-9.36l-1.7-1.77
	l6.19,3.02l1.84,2.06l2.95-0.22l1.18-2.95l-1.47-0.88l-1.55-3.91l-3.39-3.54l3.02-2.73l3.83,1.55l2.51-1.77l2.06,1.84l0.15,3.91
	l7.89,2.21l5.24-4.28l3.61-0.22l2.36,0.07l13.49-3.02l3.32-3.54l5.82,1.11l8.41,2.73l-4.13,7.59l1.47,5.31l2.65,0.96l1.4,4.87
	L101.9,759.52z M41.81,767.71l-1.33-1.25l1.03-0.29l0.59,0.52L41.81,767.71z"/>
</svg>
